<?xml version="1.0" standalone="no"?>
<!DOCTYPE svg PUBLIC "-//W3C//DTD SVG 20010904//EN"
 "http://www.w3.org/TR/2001/REC-SVG-20010904/DTD/svg10.dtd">
<svg version="1.0" xmlns="http://www.w3.org/2000/svg"
 width="2048.000000pt" height="2048.000000pt" viewBox="0 0 2048.000000 2048.000000"
 preserveAspectRatio="xMidYMid meet">
<metadata>
Created by potrace 1.11, written by Peter Selinger 2001-2013
</metadata>
<g transform="translate(0.000000,2048.000000) scale(0.100000,-0.100000)"
fill="#000000" stroke="none">
<path d="M5432 15987 c-18 -28 -38 -61 -45 -71 -105 -168 -198 -313 -204 -321
-5 -5 -31 -47 -58 -92 -28 -46 -53 -83 -57 -83 -5 0 -8 -4 -8 -10 0 -9 -203
-333 -344 -550 -66 -100 -134 -209 -151 -238 -5 -10 -19 -31 -31 -47 -11 -17
-24 -37 -28 -45 -3 -8 -33 -55 -66 -105 -61 -93 -223 -349 -250 -394 -8 -14
-18 -30 -23 -36 -17 -23 -117 -178 -117 -181 0 -2 -28 -47 -63 -101 -35 -54
-99 -154 -143 -223 -108 -171 -122 -193 -132 -205 -4 -5 -11 -17 -15 -25 -4
-8 -35 -59 -69 -113 -35 -54 -132 -207 -217 -340 -85 -133 -187 -293 -228
-355 -40 -62 -73 -115 -73 -119 0 -4 -7 -15 -16 -24 -20 -22 -17 -28 91 -164
39 -49 102 -130 140 -180 38 -49 74 -95 79 -101 6 -6 20 -23 31 -39 29 -40 98
-129 104 -135 3 -3 26 -32 51 -65 25 -33 51 -66 57 -75 20 -24 246 -314 273
-350 14 -18 45 -59 70 -90 25 -32 70 -90 100 -130 30 -39 60 -77 65 -83 6 -7
26 -32 45 -57 19 -25 39 -50 45 -56 5 -7 19 -24 30 -39 17 -23 154 -200 198
-255 7 -8 39 -51 72 -95 33 -44 68 -89 78 -100 10 -11 43 -53 75 -95 31 -41
59 -77 62 -80 3 -3 25 -32 50 -65 25 -33 48 -62 51 -65 5 -4 96 -121 179 -230
25 -32 249 -321 273 -350 7 -9 32 -42 57 -75 25 -33 47 -62 50 -65 7 -6 151
-191 233 -299 31 -42 65 -85 74 -95 8 -11 77 -98 151 -195 75 -97 139 -178
142 -181 3 -3 17 -21 30 -40 13 -19 27 -37 30 -40 4 -3 48 -59 99 -125 51 -66
99 -129 108 -140 9 -11 55 -69 102 -130 46 -60 98 -128 115 -150 17 -22 33
-42 37 -45 4 -4 129 -165 221 -285 4 -5 18 -23 31 -40 14 -16 83 -106 156
-200 72 -93 137 -177 144 -185 7 -8 34 -44 62 -80 27 -36 52 -67 55 -70 3 -3
27 -34 55 -70 27 -36 52 -67 55 -70 4 -3 11 -12 16 -21 5 -9 23 -33 39 -54 17
-21 52 -65 78 -99 26 -33 53 -68 60 -76 7 -8 50 -64 97 -125 46 -60 87 -112
90 -115 5 -5 19 -23 135 -175 38 -49 71 -92 74 -95 3 -3 31 -39 63 -80 31 -41
65 -85 75 -97 10 -12 26 -32 35 -45 9 -13 86 -111 170 -219 84 -107 163 -209
176 -225 12 -16 123 -158 246 -317 123 -158 234 -301 247 -319 13 -17 107
-137 209 -268 102 -131 196 -252 210 -270 14 -18 45 -59 70 -90 25 -31 56 -72
70 -90 14 -19 34 -45 46 -59 11 -14 44 -57 74 -96 29 -38 68 -88 86 -110 18
-22 81 -103 140 -180 59 -77 110 -142 113 -145 4 -3 33 -41 67 -85 98 -130
236 -305 239 -305 2 0 41 48 86 108 46 59 88 112 94 119 19 23 31 38 75 98 25
33 55 71 68 85 12 14 22 28 22 32 0 3 8 14 17 24 9 9 43 51 76 93 32 42 70 91
85 110 15 19 78 100 140 180 62 80 118 153 125 161 7 8 35 44 62 80 27 36 54
70 60 76 5 6 21 26 35 44 14 18 53 70 88 114 69 88 77 99 201 261 47 61 88
112 91 115 3 3 35 43 70 90 35 47 66 87 69 90 3 3 35 43 71 90 35 47 77 101
92 120 39 48 227 290 258 330 56 74 153 197 183 234 18 21 36 46 41 55 5 9 12
18 16 21 3 3 28 34 55 70 28 36 55 72 62 80 7 8 73 94 148 190 75 96 141 182
148 190 7 8 66 85 132 170 65 85 122 157 125 160 3 3 18 23 35 45 16 22 32 42
35 45 4 3 26 32 51 65 24 33 49 65 54 71 12 14 1 0 385 494 160 206 303 390
318 409 15 18 31 40 36 48 4 9 16 23 25 32 9 9 27 32 41 51 14 19 43 57 65 85
22 28 54 69 71 90 39 51 386 497 396 510 10 12 62 80 91 118 67 88 103 133
112 143 5 6 21 26 35 44 25 34 210 272 233 300 27 34 153 196 172 221 22 31
140 182 160 208 8 9 65 81 127 161 62 80 116 150 121 155 4 6 44 57 88 115 45
58 85 107 90 108 5 2 9 8 9 14 0 6 12 25 28 42 15 18 38 47 52 66 14 19 36 48
50 64 14 17 39 49 55 71 16 22 34 45 40 52 11 14 17 21 65 83 19 25 40 52 47
60 31 40 201 258 218 281 58 76 150 195 155 199 3 3 23 29 44 58 21 28 42 52
47 52 5 0 9 7 9 15 0 8 5 15 10 15 6 0 10 6 10 13 0 7 9 19 20 27 11 8 20 20
20 26 0 7 3 14 8 16 4 2 23 23 42 48 19 25 38 50 43 55 4 6 29 37 55 70 26 34
58 76 72 94 14 18 43 56 66 84 141 179 464 598 464 603 0 3 -24 42 -53 87 -29
45 -71 110 -93 145 -21 34 -57 90 -79 125 -22 34 -67 105 -100 157 -33 52 -63
97 -67 98 -5 2 -8 7 -8 12 0 8 -99 170 -110 180 -7 6 -102 157 -113 180 -4 8
-34 56 -66 105 -33 50 -88 135 -122 190 -35 55 -66 102 -69 105 -4 3 -10 12
-14 20 -10 21 -24 44 -79 128 -26 40 -47 77 -47 82 0 6 -4 10 -8 10 -5 0 -19
19 -32 43 -24 43 -133 214 -148 232 -5 6 -11 15 -13 21 -2 5 -62 101 -134 212
-71 112 -134 210 -140 219 -5 9 -43 67 -82 130 -40 62 -98 154 -130 205 -31
51 -61 98 -65 103 -13 15 -56 82 -73 113 -21 37 -81 131 -246 385 -36 56 -79
124 -95 150 -47 78 -48 79 -89 143 -22 33 -56 86 -75 117 l-35 57 -4780 0
-4780 0 -33 -53z"/>
</g>
</svg>
